<svg width="57" height="57" viewBox="0 0 57 57" fill="none" xmlns="http://www.w3.org/2000/svg">
<rect x="0.959961" y="0.806641" width="56" height="56" rx="12" fill="#3F3F3F"/>
<g clip-path="url(#clip0_3499_160434)">
<path d="M22.6123 19.5804C23.3127 20.0982 23.8507 21.4146 23.8507 21.4146C24.1951 21.6582 24.4691 21.9885 24.6448 22.372C24.7507 22.7861 24.7543 23.2198 24.6552 23.6356C24.6552 23.6356 25.1913 25.2102 24.9393 25.6521C24.6874 26.094 23.614 26.3773 23.614 26.3773C23.4685 26.6259 23.2726 26.8412 23.039 27.0096C22.8053 27.178 22.5391 27.2958 22.2573 27.3553C21.9232 27.3741 21.61 27.5237 21.3855 27.7719C21.1611 28.0201 21.0435 28.3467 21.0584 28.681C21.0584 29.533 21.91 30.9207 21.91 30.9207C21.91 30.9207 22.7934 31.3527 22.9198 31.6678C23.0147 32.0106 23.0713 32.3629 23.0886 32.7182C23.0886 32.7182 23.9311 34.2012 23.4559 35.054C23.305 35.3259 22.6042 35.5273 22.6042 35.5273L21.6217 37.0008" stroke="#B7B7B7" stroke-width="1.55" stroke-miterlimit="10"/>
<path d="M37.742 21.8603C36.7888 22.2583 35.8031 22.5736 34.7958 22.8027C34.7958 22.8027 33.4261 24.3275 32.527 24.2011C31.6279 24.0747 30.7131 23.0657 30.7131 23.0657C30.7131 23.0657 30.7759 21.2043 30.4921 21.1098C30.2084 21.0152 29.451 21.5202 28.9781 21.1412C28.5052 20.7621 28.7778 19.6956 28.7778 19.6956C28.7778 19.6956 27.7477 19.3747 27.6214 19.0274C27.495 18.6801 27.9963 17.9077 28.092 17.6106" stroke="#B7B7B7" stroke-width="1.55" stroke-miterlimit="10"/>
<path d="M37.1173 29.4085C37.3696 30.0078 36.6436 31.5387 36.0451 31.8374C35.4329 32.115 34.8992 32.5402 34.492 33.075C34.2706 33.4223 33.9808 34.8541 33.2547 35.1382C32.5287 35.4223 30.809 37.041 29.8946 36.7886C28.9802 36.5363 28.9794 34.3597 29.6105 33.3806C29.9873 32.7966 29.5477 31.5192 29.5159 31.0773C29.4841 30.6354 28.1592 29.8136 28.1592 29.3737C28.1592 28.6798 29.6733 26.8502 29.6733 26.8502C29.6733 26.8502 30.9143 26.4401 31.293 26.5347C31.6753 26.6748 32.0417 26.8551 32.3859 27.0727C32.3859 27.0727 33.8054 27.1987 34.3419 27.4828L35.0694 28.1452C35.0694 28.1452 36.8661 28.8073 37.1173 29.4085Z" stroke="#B7B7B7" stroke-width="1.55" stroke-miterlimit="10" stroke-linecap="square"/>
<path d="M28.9778 39.7858C35.1108 39.7858 40.0826 34.814 40.0826 28.681C40.0826 22.548 35.1108 17.5762 28.9778 17.5762C22.8448 17.5762 17.873 22.548 17.873 28.681C17.873 34.814 22.8448 39.7858 28.9778 39.7858Z" stroke="#B7B7B7" stroke-width="1.55" stroke-miterlimit="10" stroke-linecap="square"/>
<path d="M38.3934 13.5254C38.7556 13.7533 38.8645 14.2318 38.6365 14.5941C38.4085 14.9563 37.93 15.0652 37.5677 14.8372L38.3934 13.5254ZM43.2374 18.0354C45.8461 21.5899 47.035 25.9898 46.5717 30.3745L45.0303 30.2116C45.4531 26.2107 44.3682 22.1959 41.9878 18.9524L43.2374 18.0354ZM46.5717 30.3745C46.1083 34.7592 44.026 38.8134 40.7319 41.7442L39.7016 40.5862C42.7074 37.9119 44.6075 34.2126 45.0303 30.2116L46.5717 30.3745ZM40.7319 41.7442C37.4379 44.675 33.169 46.2716 28.7601 46.2218L28.7777 44.6719C32.8006 44.7173 36.6959 43.2605 39.7016 40.5862L40.7319 41.7442ZM28.7601 46.2218C24.3513 46.1719 20.1196 44.4793 16.8926 41.4748L17.9488 40.3403C20.8934 43.0819 24.7547 44.6264 28.7777 44.6719L28.7601 46.2218ZM16.8926 41.4748C13.6656 38.4703 11.6754 34.3701 11.3113 29.976L12.856 29.848C13.1883 33.8575 15.0043 37.5988 17.9488 40.3403L16.8926 41.4748ZM11.3113 29.976C10.9471 25.582 12.2352 21.2101 14.9236 17.7154L16.1521 18.6605C13.6991 21.8493 12.5237 25.8385 12.856 29.848L11.3113 29.976ZM14.9236 17.7154C17.612 14.2207 21.5073 11.8545 25.8478 11.0796L26.1202 12.6055C22.1596 13.3125 18.6052 15.4716 16.1521 18.6605L14.9236 17.7154ZM25.8478 11.0796C30.1883 10.3047 34.6618 11.1768 38.3934 13.5254L37.5677 14.8372C34.1628 12.6942 30.0808 11.8984 26.1202 12.6055L25.8478 11.0796Z" fill="#B7B7B7"/>
<path d="M47.4907 21.3961L42.6162 18.4822L41.804 23.5866" stroke="#B7B7B7" stroke-width="1.55" stroke-miterlimit="10" stroke-linecap="round"/>
</g>
<defs>
<clipPath id="clip0_3499_160434">
<rect width="36" height="36" fill="white" transform="translate(10.96 10.8066)"/>
</clipPath>
</defs>
</svg>
