<svg width="57" height="57" viewBox="0 0 57 57" fill="none" xmlns="http://www.w3.org/2000/svg">
<rect x="0.959961" y="0.806641" width="56" height="56" rx="12" fill="#3F3F3F"/>
<path d="M28.96 19.9855V37.6278" stroke="#B7B7B7" stroke-width="1.65" stroke-linecap="round" stroke-linejoin="round"/>
<path d="M32.7849 22.338C31.5537 21.9218 30.2593 21.7227 28.9598 21.7497C26.9295 21.7497 24.252 22.6318 24.252 24.9843C24.252 29.3949 33.6677 27.355 33.6677 32.0413C33.6677 34.3728 31.3548 35.2753 28.9598 35.2753C27.3456 35.3188 25.7407 35.0181 24.252 34.3932" stroke="#B7B7B7" stroke-width="1.65" stroke-linecap="round" stroke-linejoin="round"/>
<path d="M43.8455 22.9323C42.4791 19.468 39.9454 16.5889 36.6817 14.7919C33.418 12.9948 29.629 12.3924 25.9683 13.0886C22.3076 13.7849 19.005 15.7361 16.6301 18.6056C14.2553 21.4751 12.9573 25.083 12.96 28.8066" stroke="#B7B7B7" stroke-width="1.65" stroke-linecap="round" stroke-linejoin="round"/>
<path d="M14.0742 34.681C15.4406 38.1453 17.9743 41.0243 21.238 42.8214C24.5017 44.6185 28.2907 45.2209 31.9514 44.5246C35.6121 43.8284 38.9147 41.8772 41.2896 39.0077C43.6644 36.1381 44.9624 32.5303 44.9597 28.8066" stroke="#B7B7B7" stroke-width="1.65" stroke-linecap="round" stroke-linejoin="round"/>
<path d="M14.5573 42.5875L14.0635 34.6777L21.8124 37.3698" stroke="#B7B7B7" stroke-width="1.65" stroke-linecap="round" stroke-linejoin="round"/>
<path d="M43.3626 15.0258L43.8564 22.9356L36.1074 20.2435" stroke="#B7B7B7" stroke-width="1.65" stroke-linecap="round" stroke-linejoin="round"/>
</svg>
