<svg width="57" height="57" viewBox="0 0 57 57" fill="none" xmlns="http://www.w3.org/2000/svg">
<rect x="0.959961" y="0.806641" width="56" height="56" rx="12" fill="#3F3F3F"/>
<path d="M23.506 44.4408H19.8701V23.3528H14.0527L22.7788 13.1724L31.5049 23.3528H25.6875V26.2615" stroke="#B7B7B7" stroke-width="1.6" stroke-miterlimit="10" stroke-linecap="square"/>
<path d="M30.7778 34.2604C32.3843 34.2604 33.6865 32.9581 33.6865 31.3517C33.6865 29.7453 32.3843 28.443 30.7778 28.443C29.1714 28.443 27.8691 29.7453 27.8691 31.3517C27.8691 32.9581 29.1714 34.2604 30.7778 34.2604Z" stroke="#B7B7B7" stroke-width="1.6" stroke-miterlimit="10" stroke-linecap="square"/>
<path d="M40.958 44.4408C42.5644 44.4408 43.8667 43.1385 43.8667 41.5321C43.8667 39.9257 42.5644 38.6234 40.958 38.6234C39.3516 38.6234 38.0493 39.9257 38.0493 41.5321C38.0493 43.1385 39.3516 44.4408 40.958 44.4408Z" stroke="#B7B7B7" stroke-width="1.6" stroke-miterlimit="10" stroke-linecap="square"/>
<path d="M30.0508 43.7136L41.6856 29.1702" stroke="#B7B7B7" stroke-width="1.6" stroke-miterlimit="10" stroke-linecap="square"/>
</svg>
